<svg xmlns="http://www.w3.org/2000/svg" xmlns:svg="http://www.w3.org/2000/svg" id="svg2" width="517.611" height="366.739" version="1.1" viewBox="0 0 485.26 343.818"><defs id="defs4"><marker id="marker4951" orient="auto" refX="0" refY="0" style="overflow:visible"><path id="path4953" d="M 8.7185878,4.0337352 -2.2072895,0.01601326 8.7185884,-4.0017078 c -1.7454984,2.3720609 -1.7354408,5.6174519 -6e-7,8.035443 z" transform="matrix(-1.1,0,0,-1.1,-1.1,0)" style="fill:#007c4b;fill-opacity:1;fill-rule:evenodd;stroke:#007c4b;stroke-width:.625;stroke-linejoin:round;stroke-opacity:1"/></marker><marker style="overflow:visible" id="marker4893" orient="auto" refX="0" refY="0"><path style="fill:#007c4b;fill-opacity:1;fill-rule:evenodd;stroke:#007c4b;stroke-width:.625;stroke-linejoin:round;stroke-opacity:1" id="path4895" d="M 8.7185878,4.0337352 -2.2072895,0.01601326 8.7185884,-4.0017078 c -1.7454984,2.3720609 -1.7354408,5.6174519 -6e-7,8.035443 z" transform="matrix(1.1,0,0,1.1,1.1,0)"/></marker><marker id="marker4841" orient="auto" refX="0" refY="0" style="overflow:visible"><path id="path4843" d="M 8.7185878,4.0337352 -2.2072895,0.01601326 8.7185884,-4.0017078 c -1.7454984,2.3720609 -1.7354408,5.6174519 -6e-7,8.035443 z" transform="matrix(-1.1,0,0,-1.1,-1.1,0)" style="fill:#005ad1;fill-opacity:1;fill-rule:evenodd;stroke:#005ad1;stroke-width:.625;stroke-linejoin:round;stroke-opacity:1"/></marker><marker id="marker4795" orient="auto" refX="0" refY="0" style="overflow:visible"><path id="path4797" d="M 8.7185878,4.0337352 -2.2072895,0.01601326 8.7185884,-4.0017078 c -1.7454984,2.3720609 -1.7354408,5.6174519 -6e-7,8.035443 z" transform="matrix(1.1,0,0,1.1,1.1,0)" style="fill:#005ad1;fill-opacity:1;fill-rule:evenodd;stroke:#005ad1;stroke-width:.625;stroke-linejoin:round;stroke-opacity:1"/></marker><marker style="overflow:visible" id="Arrow2Lend" orient="auto" refX="0" refY="0"><path style="fill:#f90000;fill-opacity:1;fill-rule:evenodd;stroke:#f90000;stroke-width:.625;stroke-linejoin:round;stroke-opacity:1" id="path4496" d="M 8.7185878,4.0337352 -2.2072895,0.01601326 8.7185884,-4.0017078 c -1.7454984,2.3720609 -1.7354408,5.6174519 -6e-7,8.035443 z" transform="matrix(-1.1,0,0,-1.1,-1.1,0)"/></marker><marker style="overflow:visible" id="Arrow2Lstart" orient="auto" refX="0" refY="0"><path style="fill:#f90000;fill-opacity:1;fill-rule:evenodd;stroke:#f90000;stroke-width:.625;stroke-linejoin:round;stroke-opacity:1" id="path4493" d="M 8.7185878,4.0337352 -2.2072895,0.01601326 8.7185884,-4.0017078 c -1.7454984,2.3720609 -1.7354408,5.6174519 -6e-7,8.035443 z" transform="matrix(1.1,0,0,1.1,1.1,0)"/></marker></defs><metadata id="metadata7"/><g id="layer1" transform="translate(-75.426562,-98.797035)"><g id="g3480" transform="matrix(2.16,0,0,2.16,-368.94562,-314.01891)"><g id="g4433" transform="translate(-207.74352,64.706998)" style="stroke:#527a8a;stroke-opacity:1"><g id="g4424" style="stroke:#527a8a;stroke-opacity:1"><g id="g4416" style="stroke:#527a8a;stroke-opacity:1"><g id="g4319" transform="matrix(0.71685087,-0.85797651,1.0871479,0.61693884,125.98012,340.97755)" style="stroke:#527a8a;stroke-opacity:1"><rect style="fill:none;fill-opacity:1;stroke:#527a8a;stroke-width:.500422;stroke-linejoin:miter;stroke-miterlimit:4;stroke-dasharray:none;stroke-opacity:1" id="rect4195-3" width="62.176" height="111.308" x="255.627" y="120.19" rx="0" ry="0"/><rect style="fill:#7c7c7c;fill-opacity:1;stroke:#527a8a;stroke-width:1.29999995;stroke-linejoin:miter;stroke-miterlimit:4;stroke-dasharray:none;stroke-opacity:1" id="rect4197-6" width="12.39" height="1.365" x="280.308" y="111.011" rx=".597" ry=".308"/><ellipse style="fill:#7c7c7c;fill-opacity:1;stroke:#527a8a;stroke-width:.8458696;stroke-linejoin:miter;stroke-miterlimit:4;stroke-dasharray:none;stroke-opacity:1" id="path4206-9" cx="276.127" cy="111.69" rx=".659" ry=".679"/><circle style="fill:none;fill-opacity:1;stroke:#527a8a;stroke-width:.5252493;stroke-linejoin:miter;stroke-miterlimit:4;stroke-dasharray:none;stroke-opacity:1" id="path4208-3" cx="286.852" cy="242.65" r="5.987"/></g></g></g><g id="g4445" transform="matrix(0.99996503,0.00836295,-0.00836295,0.99996503,1.7409496,-4.3618807)" style="stroke:#527a8a;stroke-opacity:1"><rect id="rect4182-6" width="154.736" height="73.391" x="98.081" y="-323.657" rx="8.387" ry="8.955" transform="matrix(1.0871479,0.61693884,-0.71685087,0.85797651,125.98012,340.97755)" style="fill:none;fill-opacity:1;stroke:#527a8a;stroke-width:.98025495;stroke-linejoin:round;stroke-miterlimit:4;stroke-dasharray:none;stroke-opacity:1"/><path id="path4361" d="m 416.33875,184.50366 c -0.0216,3.56435 -0.11581,6.40662 0.093,8.32253 0.35557,3.2631 4.71157,5.29665 4.71157,5.29665 44.84186,25.42601 89.38581,49.72276 131.69766,73.65829 5.98116,2.97629 18.77816,11.39005 23.71706,12.56336 4.55338,1.08172 9.13042,-1.20431 12.10014,-4.55722 14.49184,-16.49642 29.85325,-35.64055 38.03219,-44.54456 2.88605,-3.2682 1.68347,-15.32109 1.68347,-15.32109" style="fill:none;fill-rule:evenodd;stroke:#527a8a;stroke-width:1px;stroke-linecap:butt;stroke-linejoin:miter;stroke-opacity:1"/></g></g><path style="fill:none;fill-rule:evenodd;stroke:#005ad1;stroke-width:.48266089;stroke-linecap:butt;stroke-linejoin:miter;stroke-miterlimit:4;stroke-dasharray:none;stroke-opacity:1;marker-start:url(#marker4795);marker-end:url(#marker4841)" id="path4463" d="M 206.45311,205.17741 429.66002,334.04598"/><path style="fill:none;fill-rule:evenodd;stroke:#007c4b;stroke-width:.5;stroke-linecap:butt;stroke-linejoin:miter;stroke-miterlimit:4;stroke-dasharray:none;stroke-opacity:1;marker-start:url(#marker4893);marker-end:url(#marker4951)" id="path4467" d="M 263.04885,323.98675 358.57194,208.79714"/><path style="fill:none;fill-rule:evenodd;stroke:#f90000;stroke-width:.48436135;stroke-linecap:butt;stroke-linejoin:miter;stroke-miterlimit:4;stroke-dasharray:none;stroke-opacity:1;marker-start:url(#Arrow2Lstart);marker-end:url(#Arrow2Lend)" id="path4469" d="m 311.21175,346.46277 0,-152.91721"/><text style="font-style:normal;font-variant:normal;font-weight:400;font-stretch:normal;font-size:12.5px;line-height:125%;font-family:Verdana;-inkscape-font-specification:Verdana;letter-spacing:0;word-spacing:0;fill:#f90000;fill-opacity:1;stroke:none;stroke-width:1px;stroke-linecap:butt;stroke-linejoin:miter;stroke-opacity:1" id="text18220" x="315.559" y="199.098" xml:space="preserve"><tspan id="tspan18222" x="315.559" y="199.098" style="font-style:normal;font-variant:normal;font-weight:400;font-stretch:normal;font-size:8.75px;font-family:Verdana;-inkscape-font-specification:Verdana;fill:#f90000;fill-opacity:1;stroke:none;stroke-opacity:1">Z</tspan></text><text style="font-style:normal;font-variant:normal;font-weight:400;font-stretch:normal;font-size:12.5px;line-height:125%;font-family:Verdana;-inkscape-font-specification:Verdana;letter-spacing:0;word-spacing:0;fill:#f90000;fill-opacity:1;stroke:none;stroke-width:1px;stroke-linecap:butt;stroke-linejoin:miter;stroke-opacity:1" id="text18220-7" x="297.25" y="347.245" xml:space="preserve"><tspan id="tspan18222-6" x="297.25" y="347.245" style="font-style:normal;font-variant:normal;font-weight:400;font-stretch:normal;font-size:8.75px;font-family:Verdana;-inkscape-font-specification:Verdana;fill:#f90000;fill-opacity:1;stroke:none;stroke-opacity:1">-Z</tspan></text><text style="font-style:normal;font-variant:normal;font-weight:400;font-stretch:normal;font-size:12.5px;line-height:125%;font-family:Verdana;-inkscape-font-specification:Verdana;letter-spacing:0;word-spacing:0;fill:#005ad1;fill-opacity:1;stroke:none;stroke-width:1px;stroke-linecap:butt;stroke-linejoin:miter;stroke-opacity:1" id="text18220-8" x="-59.439" y="289.104" transform="matrix(0.53128979,-0.84719015,0.84719015,0.53128979,0,0)" xml:space="preserve"><tspan id="tspan18222-8" x="-59.439" y="289.104" style="font-style:normal;font-variant:normal;font-weight:400;font-stretch:normal;font-size:8.75px;font-family:Verdana;-inkscape-font-specification:Verdana;fill:#005ad1;fill-opacity:1;stroke:none;stroke-opacity:1">Y</tspan></text><text style="font-style:normal;font-variant:normal;font-weight:400;font-stretch:normal;font-size:12.5px;line-height:125%;font-family:Verdana;-inkscape-font-specification:Verdana;letter-spacing:0;word-spacing:0;fill:#005ad1;fill-opacity:1;stroke:none;stroke-width:1px;stroke-linecap:butt;stroke-linejoin:miter;stroke-opacity:1" id="text18220-8-0" x="-69.9" y="542.674" transform="matrix(0.53128979,-0.84719015,0.84719015,0.53128979,0,0)" xml:space="preserve"><tspan id="tspan18222-8-9" x="-69.9" y="542.674" style="font-style:normal;font-variant:normal;font-weight:400;font-stretch:normal;font-size:8.75px;font-family:Verdana;-inkscape-font-specification:Verdana;fill:#005ad1;fill-opacity:1;stroke:none;stroke-opacity:1">-Y</tspan></text><text style="font-style:normal;font-variant:normal;font-weight:400;font-stretch:normal;font-size:12.5px;line-height:125%;font-family:Verdana;-inkscape-font-specification:Verdana;letter-spacing:0;word-spacing:0;fill:#007c4b;fill-opacity:1;stroke:none;stroke-width:1px;stroke-linecap:butt;stroke-linejoin:miter;stroke-opacity:1" id="text18220-5" x="413.186" y="-63.152" transform="matrix(0.77064764,0.6372615,-0.6372615,0.77064764,0,0)" xml:space="preserve"><tspan id="tspan18222-68" x="413.186" y="-63.152" style="font-style:normal;font-variant:normal;font-weight:400;font-stretch:normal;font-size:8.75px;font-family:Verdana;-inkscape-font-specification:Verdana;fill:#007c4b;fill-opacity:1;stroke:none;stroke-opacity:1">X</tspan></text><text style="font-style:normal;font-variant:normal;font-weight:400;font-stretch:normal;font-size:12.5px;line-height:125%;font-family:Verdana;-inkscape-font-specification:Verdana;letter-spacing:0;word-spacing:0;fill:#007c4b;fill-opacity:1;stroke:none;stroke-width:1px;stroke-linecap:butt;stroke-linejoin:miter;stroke-opacity:1" id="text18220-5-8" x="395.979" y="83.552" transform="matrix(0.77064764,0.6372615,-0.6372615,0.77064764,0,0)" xml:space="preserve"><tspan id="tspan18222-68-5" x="395.979" y="83.552" style="font-style:normal;font-variant:normal;font-weight:400;font-stretch:normal;font-size:8.75px;font-family:Verdana;-inkscape-font-specification:Verdana;fill:#007c4b;fill-opacity:1;stroke:none;stroke-opacity:1">-X</tspan></text></g></g></svg>